<svg width="245" height="103" viewBox="0 0 245 103" fill="none" xmlns="http://www.w3.org/2000/svg">
<g clip-path="url(#clip0_203_302)">
<path d="M34 77.3894C34 75.7326 32.6569 74.3894 31 74.3894C23.268 74.3894 17 80.7195 17 88.528V94.0825C17 98.8229 20.8056 102.667 25.5 102.667C30.1944 102.667 34 98.8229 34 94.0825V77.3894Z" fill="#BB6F5D"/>
<path d="M0 64.3499C0 67.6636 2.68629 70.3499 6 70.3499H45C48.3137 70.3499 51 67.6636 51 64.3499V36.0132L25 20.3598C14.6872 12.6528 0 20.0121 0 32.8865V64.3499Z" fill="#72470D"/>
<path d="M51 27.1667C51 13.0834 39.5833 1.66669 25.5 1.66669C11.4167 1.66669 0 13.0834 0 27.1667V68.4802C0 71.3446 2.32205 73.6667 5.18644 73.6667C8.05083 73.6667 10.3729 71.3446 10.3729 68.4802V54.637C10.3729 51.892 12.5982 49.6667 15.3432 49.6667C18.0883 49.6667 20.3136 51.892 20.3136 54.637V62.8632C20.3136 65.7276 22.6356 68.0497 25.5 68.0497H25.8354C28.5145 68.0497 30.6864 65.8778 30.6864 63.1986V62.5923C30.6864 60.248 32.5869 58.3475 34.9312 58.3475H35.3668C37.5605 58.3475 39.5961 59.489 40.7402 61.3607C41.3504 62.3588 42.3885 63.0181 43.5514 63.1459L44.5465 63.2553C47.9905 63.6338 51 60.9369 51 57.4722V27.1667Z" fill="#F7B155"/>
</g>
<path d="M139.406 74.9167C138.031 74.9167 136.906 74.4584 136.031 73.5417C135.156 72.6042 134.719 71.4375 134.719 70.0417V55.0104C134.719 52.5104 134.146 50.6146 133 49.3229C131.854 48.0104 130.25 47.3542 128.188 47.3542C126.021 47.3542 124.302 48.0834 123.031 49.5417C121.76 51 121.125 52.9271 121.125 55.3229V70.0417C121.125 71.4584 120.677 72.625 119.781 73.5417C118.906 74.4584 117.792 74.9167 116.438 74.9167C115.083 74.9167 113.958 74.4584 113.062 73.5417C112.188 72.6042 111.75 71.4375 111.75 70.0417V55.0104C111.75 52.5104 111.177 50.6146 110.031 49.3229C108.885 48.0104 107.281 47.3542 105.219 47.3542C103.052 47.3542 101.333 48.0834 100.062 49.5417C98.7917 51 98.1562 52.9271 98.1562 55.3229V70.0417C98.1562 71.4792 97.7188 72.6563 96.8438 73.5729C95.9896 74.4688 94.875 74.9167 93.5 74.9167C92.125 74.9167 91 74.4584 90.125 73.5417C89.25 72.625 88.8125 71.4584 88.8125 70.0417V43.9167C88.8125 42.4792 89.25 41.3125 90.125 40.4167C91 39.5 92.125 39.0417 93.5 39.0417C94.7083 39.0417 95.7188 39.3959 96.5312 40.1042C97.3646 40.8125 97.875 41.75 98.0625 42.9167C99.0625 41.6042 100.375 40.6042 102 39.9167C103.646 39.2084 105.469 38.8542 107.469 38.8542C109.844 38.8542 111.969 39.2917 113.844 40.1667C115.719 41.0417 117.25 42.3125 118.438 43.9792C120.792 40.5625 124.708 38.8542 130.188 38.8542C134.354 38.8542 137.708 40.1563 140.25 42.7604C142.812 45.3438 144.094 48.9375 144.094 53.5417V70.0417C144.094 71.4584 143.646 72.625 142.75 73.5417C141.875 74.4584 140.76 74.9167 139.406 74.9167ZM171.281 75.1042C165.594 75.1042 161.042 73.4688 157.625 70.1979C154.208 66.9063 152.5 62.5104 152.5 57.0104C152.5 51.6771 154.146 47.3229 157.438 43.9479C160.75 40.5521 165 38.8542 170.188 38.8542C175.188 38.8542 179.229 40.3438 182.312 43.3229C185.417 46.2813 186.969 50.0729 186.969 54.6979C186.969 56.5104 186.573 57.8438 185.781 58.6979C184.99 59.5313 183.76 59.9479 182.094 59.9479H161.875C162.208 61.9896 163.26 63.6042 165.031 64.7917C166.802 65.9584 169.031 66.5417 171.719 66.5417C174.656 66.5417 176.979 65.7188 178.688 64.0729C180.146 63.1146 181.469 62.6354 182.656 62.6354C184.99 62.6354 186.156 63.8646 186.156 66.3229C186.156 67.3646 185.74 68.4479 184.906 69.5729C183.677 71.3021 181.812 72.6563 179.312 73.6354C176.833 74.6146 174.156 75.1042 171.281 75.1042ZM161.875 52.7604H177.719C177.448 50.7188 176.615 49.125 175.219 47.9792C173.823 46.8125 172.021 46.2292 169.812 46.2292C167.604 46.2292 165.792 46.8125 164.375 47.9792C162.979 49.1459 162.146 50.7396 161.875 52.7604ZM200.375 74.9167C198.979 74.9167 197.844 74.4688 196.969 73.5729C196.115 72.6563 195.688 71.4792 195.688 70.0417V33.2917C195.688 31.8542 196.115 30.6875 196.969 29.7917C197.844 28.875 198.979 28.4167 200.375 28.4167C201.75 28.4167 202.865 28.875 203.719 29.7917C204.594 30.6875 205.031 31.8542 205.031 33.2917V70.0417C205.031 71.4792 204.594 72.6563 203.719 73.5729C202.865 74.4688 201.75 74.9167 200.375 74.9167ZM230.594 75.1042C227.365 75.1042 224.719 74.0938 222.656 72.0729C220.594 70.0521 219.562 67.3854 219.562 64.0729V48.1979H216.125C214.854 48.1979 213.802 47.8021 212.969 47.0104C212.156 46.2188 211.75 45.2084 211.75 43.9792C211.75 42.75 212.156 41.75 212.969 40.9792C213.781 40.1875 214.833 39.7917 216.125 39.7917H219.562V34.3542C219.562 32.9167 220 31.75 220.875 30.8542C221.75 29.9375 222.875 29.4792 224.25 29.4792C225.646 29.4792 226.771 29.9375 227.625 30.8542C228.5 31.75 228.938 32.9167 228.938 34.3542V39.7917H236.625C237.917 39.7917 238.969 40.1875 239.781 40.9792C240.594 41.75 241 42.75 241 43.9792C241 45.2084 240.583 46.2188 239.75 47.0104C238.938 47.8021 237.896 48.1979 236.625 48.1979H228.938V62.6667C228.938 65.0417 229.917 66.2292 231.875 66.2292C232.771 66.2292 233.854 65.7396 235.125 64.7604C236.146 63.9688 237.208 63.5729 238.312 63.5729C239.375 63.5729 240.24 63.9167 240.906 64.6042C241.573 65.2917 241.906 66.1875 241.906 67.2917C241.906 69.0625 241.188 70.6042 239.75 71.9167C238.667 72.8959 237.312 73.6667 235.688 74.2292C234.062 74.8125 232.365 75.1042 230.594 75.1042Z" fill="#171717"/>
<defs>
<clipPath id="clip0_203_302">
<rect width="51" height="102" fill="white" transform="translate(0 0.666687)"/>
</clipPath>
</defs>
</svg>
